<?xml version="1.0" encoding="UTF-8" standalone="no"?>
<svg
   xmlns:dc="http://purl.org/dc/elements/1.1/"
   xmlns:cc="http://creativecommons.org/ns#"
   xmlns:rdf="http://www.w3.org/1999/02/22-rdf-syntax-ns#"
   xmlns:svg="http://www.w3.org/2000/svg"
   xmlns="http://www.w3.org/2000/svg"
   viewBox="0 0 1200 675"
   height="675"
   width="1200"
   xml:space="preserve"
   version="1.1"
   id="svg2"><metadata
     id="metadata8"><rdf:RDF><cc:Work
         rdf:about=""><dc:format>image/svg+xml</dc:format><dc:type
           rdf:resource="http://purl.org/dc/dcmitype/StillImage" /></cc:Work></rdf:RDF></metadata><defs
     id="defs6"><clipPath
       id="clipPath16"
       clipPathUnits="userSpaceOnUse"><path
         style="clip-rule:evenodd"
         id="path18"
         d="m 0,1.2207e-4 960,0 0,539.99999793 -960,0 L 0,1.2207e-4 Z" /></clipPath><clipPath
       id="clipPath26"
       clipPathUnits="userSpaceOnUse"><path
         style="clip-rule:evenodd"
         id="path28"
         d="m 0,1.8311e-4 960,0 0,539.99999689 -960,0 L 0,1.8311e-4 Z" /></clipPath><clipPath
       id="clipPath36"
       clipPathUnits="userSpaceOnUse"><path
         style="clip-rule:evenodd"
         id="path38"
         d="M 1.4305e-5,0 960.00001,0 l 0,540 -959.999995695,0 0,-540 z" /></clipPath><clipPath
       id="clipPath48"
       clipPathUnits="userSpaceOnUse"><path
         style="clip-rule:evenodd"
         id="path50"
         d="M 1.4305e-5,0 960.00001,0 l 0,540 -959.999995695,0 0,-540 z" /></clipPath><clipPath
       id="clipPath60"
       clipPathUnits="userSpaceOnUse"><path
         style="clip-rule:evenodd"
         id="path62"
         d="M -4.77e-7,0 960,0 960,540 -4.77e-7,540 l 0,-540 z" /></clipPath><clipPath
       id="clipPath70"
       clipPathUnits="userSpaceOnUse"><path
         style="clip-rule:evenodd"
         id="path72"
         d="M 0,540 960,540 960,2.4414e-4 -3.0518e-5,1.8311e-4" /></clipPath><clipPath
       id="clipPath82"
       clipPathUnits="userSpaceOnUse"><path
         style="clip-rule:evenodd"
         id="path84"
         d="M -1.2207e-4,540 960,540 960,1.2207e-4 l -960.00012207,0" /></clipPath><clipPath
       id="clipPath92"
       clipPathUnits="userSpaceOnUse"><path
         style="clip-rule:evenodd"
         id="path94"
         d="M 1.4305e-5,0 960.00001,0 l 0,540 -959.999995695,0 0,-540 z" /></clipPath><clipPath
       id="clipPath104"
       clipPathUnits="userSpaceOnUse"><path
         style="clip-rule:evenodd"
         id="path106"
         d="M 1.4305e-5,0 960.00001,0 l 0,540 -959.999995695,0 0,-540 z" /></clipPath><clipPath
       id="clipPath116"
       clipPathUnits="userSpaceOnUse"><path
         style="clip-rule:evenodd"
         id="path118"
         d="M 1.4305e-5,0 960.00001,0 l 0,540 -959.999995695,0 0,-540 z" /></clipPath><clipPath
       id="clipPath128"
       clipPathUnits="userSpaceOnUse"><path
         style="clip-rule:evenodd"
         id="path130"
         d="M 1.4305e-5,0 960.00001,0 l 0,540 -959.999995695,0 0,-540 z" /></clipPath><clipPath
       id="clipPath140"
       clipPathUnits="userSpaceOnUse"><path
         style="clip-rule:evenodd"
         id="path142"
         d="M 1.4305e-5,0 960.00001,0 l 0,540 -959.999995695,0 0,-540 z" /></clipPath><clipPath
       id="clipPath152"
       clipPathUnits="userSpaceOnUse"><path
         style="clip-rule:evenodd"
         id="path154"
         d="M 1.4305e-5,0 960.00001,0 l 0,540 -959.999995695,0 0,-540 z" /></clipPath><clipPath
       id="clipPath164"
       clipPathUnits="userSpaceOnUse"><path
         style="clip-rule:evenodd"
         id="path166"
         d="M 1.4305e-5,0 960.00001,0 l 0,540 -959.999995695,0 0,-540 z" /></clipPath><clipPath
       id="clipPath176"
       clipPathUnits="userSpaceOnUse"><path
         style="clip-rule:evenodd"
         id="path178"
         d="M 1.4305e-5,0 960.00001,0 l 0,540 -959.999995695,0 0,-540 z" /></clipPath><clipPath
       id="clipPath188"
       clipPathUnits="userSpaceOnUse"><path
         style="clip-rule:evenodd"
         id="path190"
         d="M 1.4305e-5,0 960.00001,0 l 0,540 -959.999995695,0 0,-540 z" /></clipPath></defs><g
     transform="matrix(1.25,0,0,-1.25,0,675)"
     id="g10"><g
       id="g12"><g
         clip-path="url(#clipPath16)"
         id="g14"><path
           id="path20"
           style="fill:#ffffff;fill-opacity:1;fill-rule:evenodd;stroke:none"
           d="m 0,6.1035e-5 960,0 0,539.999998965 -960,0 L 0,6.1035e-5 Z" /></g></g><g
       id="g22"><g
         clip-path="url(#clipPath26)"
         id="g24"><path
           id="path30"
           style="fill:#e7e6e6;fill-opacity:1;fill-rule:evenodd;stroke:none"
           d="M 6.72,0 960,0 960,319.56 6.72,319.56 6.72,0 Z" /></g></g><g
       id="g32"><g
         clip-path="url(#clipPath36)"
         id="g34"><text
           id="text40"
           style="font-variant:normal;font-weight:normal;font-size:44.04000092px;font-family:Helvetica;-inkscape-font-specification:Helvetica;writing-mode:lr-tb;fill:#000000;fill-opacity:1;fill-rule:nonzero;stroke:none"
           transform="matrix(1,0,0,-1,7.2,493.27)"><tspan
             id="tspan42"
             y="0"
             x="0 22.02 31.796881 41.705879 66.192123 90.67836">client</tspan></text>
</g></g><g
       id="g44"><g
         clip-path="url(#clipPath48)"
         id="g46"><text
           id="text52"
           style="font-variant:normal;font-weight:normal;font-size:44.04000092px;font-family:Helvetica;-inkscape-font-specification:Helvetica;writing-mode:lr-tb;fill:#000000;fill-opacity:1;fill-rule:nonzero;stroke:none"
           transform="matrix(1,0,0,-1,22.056,182.02)"><tspan
             id="tspan54"
             y="0"
             x="0 9.7768803 46.4622 70.948441 80.857437 105.34368 142.02901 166.51524 191.00148 203.2446 227.73083">implementer</tspan></text>
</g></g><g
       id="g56"><g
         clip-path="url(#clipPath60)"
         id="g58"><path
           id="path64"
           style="fill:none;stroke:#ff0000;stroke-width:3;stroke-linecap:butt;stroke-linejoin:miter;stroke-miterlimit:10;stroke-dasharray:none;stroke-opacity:1"
           d="m 6.78,319.48 953.23,2.06" /></g></g><g
       id="g66"><g
         clip-path="url(#clipPath70)"
         id="g68"><path
           id="path74"
           style="fill:none;stroke:#4472c4;stroke-width:2.25;stroke-linecap:butt;stroke-linejoin:miter;stroke-miterlimit:10;stroke-dasharray:none;stroke-opacity:1"
           d="m 161.08,509.3 161.17,-277.34 5.54,3.21 -4.64,-17.5 -17.51,4.63 5.54,3.22 -161.18,277.34 11.08,6.44 z" /></g></g><path
       id="path76"
       style="fill:none;stroke:#4472c4;stroke-width:2.27999997;stroke-linecap:butt;stroke-linejoin:miter;stroke-miterlimit:10;stroke-dasharray:none;stroke-opacity:1"
       d="m 331.74,228.42 308.4,0 0,6.84 13.68,-13.68 -13.68,-13.68 0,6.84 -308.4,0 0,13.68 z" /><g
       id="g78"><g
         clip-path="url(#clipPath82)"
         id="g80"><path
           id="path86"
           style="fill:none;stroke:#4472c4;stroke-width:2.25;stroke-linecap:butt;stroke-linejoin:miter;stroke-miterlimit:10;stroke-dasharray:none;stroke-opacity:1"
           d="m 660.36,219.38 165.67,284.64 -6.56,3.81 20.75,5.48 5.48,-20.74 -6.56,3.81 -165.67,-284.63 -13.11,7.63 z" /></g></g><g
       id="g88"><g
         clip-path="url(#clipPath92)"
         id="g90"><text
           id="text96"
           style="font-style:italic;font-variant:normal;font-weight:normal;font-size:36px;font-family:Helvetica;-inkscape-font-specification:'Helvetica Italic';writing-mode:lr-tb;fill:#ff0000;fill-opacity:1;fill-rule:nonzero;stroke:none"
           transform="matrix(1,0,0,-1,373.03,328.08)"><tspan
             id="tspan98"
             y="0"
             x="0 18 38.015999 58.032001 76.031998 84.024002 94.031998 102.024 120.024 140.112 150.12 158.112 178.12801 198.144">specification </tspan></text>
</g></g><g
       id="g100"><g
         clip-path="url(#clipPath104)"
         id="g102"><text
           id="text108"
           style="font-variant:normal;font-weight:normal;font-size:39.95999908px;font-family:Helvetica;-inkscape-font-specification:Helvetica;writing-mode:lr-tb;fill:#ff0000;fill-opacity:1;fill-rule:nonzero;stroke:none"
           transform="matrix(1,0,0,-1,230.35,406.63)"><tspan
             id="tspan110"
             y="0"
             x="0 22.21776 44.43552 57.742199 79.959961 113.24664 135.4644 146.57327 168.79105 182.09772">parameters</tspan></text>
</g></g><g
       id="g112"><g
         clip-path="url(#clipPath116)"
         id="g114"><text
           id="text120"
           style="font-variant:normal;font-weight:normal;font-size:39.98400116px;font-family:Helvetica;-inkscape-font-specification:Helvetica;writing-mode:lr-tb;fill:#ff0000;fill-opacity:1;fill-rule:nonzero;stroke:none"
           transform="matrix(1,0,0,-1,548.3,429.5)"><tspan
             id="tspan122"
             y="0"
             x="0 13.314672 35.545776 46.661327 68.892433 82.207108 104.43821 115.75368 135.74568 157.97679 166.85323 189.08434 211.31544">return value,</tspan></text>
</g></g><g
       id="g124"><g
         clip-path="url(#clipPath128)"
         id="g126"><text
           id="text132"
           style="font-variant:normal;font-weight:normal;font-size:39.95999908px;font-family:Helvetica;-inkscape-font-specification:Helvetica;writing-mode:lr-tb;fill:#ff0000;fill-opacity:1;fill-rule:nonzero;stroke:none"
           transform="matrix(1,0,0,-1,564.02,381.48)"><tspan
             id="tspan134"
             y="0"
             x="0 22.21776 42.197762 62.177761 84.395523 106.61328 117.72216 126.6732 148.89096 171.10872">exceptions</tspan></text>
</g></g><g
       id="g136"><g
         clip-path="url(#clipPath140)"
         id="g138"><text
           id="text144"
           style="font-variant:normal;font-weight:normal;font-size:44.04000092px;font-family:Helvetica;-inkscape-font-specification:Helvetica;writing-mode:lr-tb;fill:#767171;fill-opacity:1;fill-rule:nonzero;stroke:none"
           transform="matrix(1,0,0,-1,340.97,164.47)"><tspan
             id="tspan146"
             y="0"
             x="0 9.7768803 34.263119 56.283119 80.769363 90.67836 102.65724 124.67724 149.16348 163.8288 173.60568 198.09192 222.57816 232.44312 256.92935 278.94937">local variables,</tspan></text>
</g></g><g
       id="g148"><g
         clip-path="url(#clipPath152)"
         id="g150"><text
           id="text156"
           style="font-variant:normal;font-weight:normal;font-size:44.04000092px;font-family:Helvetica;-inkscape-font-specification:Helvetica;writing-mode:lr-tb;fill:#767171;fill-opacity:1;fill-rule:nonzero;stroke:none"
           transform="matrix(1,0,0,-1,234.5,111.65)"><tspan
             id="tspan158"
             y="0"
             x="0 14.66532 39.151562 63.637798 75.88092 97.900917 122.38716 132.16405 156.65028 181.13652 203.15652 215.39964 230.06496 254.55119 269.21652 278.99341 301.0134 325.49963 337.74277 362.229 374.47211 386.71524 396.49213 420.97836 430.75525 455.24149 477.26147 491.92679">rep values (private fields),</tspan></text>
</g></g><g
       id="g160"><g
         clip-path="url(#clipPath164)"
         id="g162"><text
           id="text168"
           style="font-variant:normal;font-weight:normal;font-size:44.04000092px;font-family:Helvetica;-inkscape-font-specification:Helvetica;writing-mode:lr-tb;fill:#767171;fill-opacity:1;fill-rule:nonzero;stroke:none"
           transform="matrix(1,0,0,-1,289.49,58.848)"><tspan
             id="tspan170"
             y="0"
             x="0 24.48624 48.972481 70.992477 83.235603 97.900917 122.38716 144.40717 156.65028 166.51524 191.00148 215.48772 227.59872 239.84184 264.32809 288.81433 310.83432 323.07745 332.85431 357.34055 381.82681">abstraction function,</tspan></text>
</g></g><g
       id="g172"><g
         clip-path="url(#clipPath176)"
         id="g174"><text
           id="text180"
           style="font-variant:normal;font-weight:normal;font-size:44.06399918px;font-family:Helvetica;-inkscape-font-specification:Helvetica;writing-mode:lr-tb;fill:#767171;fill-opacity:1;fill-rule:nonzero;stroke:none"
           transform="matrix(1,0,0,-1,365.45,6.048)"><tspan
             id="tspan182"
             y="0"
             x="0 14.673312 39.172897 63.672482 75.922272 85.704483 110.20406 132.23607 156.73564 171.40897 181.19116 205.69075 230.19034">rep invariant</tspan></text>
</g></g><g
       id="g184"><g
         clip-path="url(#clipPath188)"
         id="g186"><text
           id="text192"
           style="font-variant:normal;font-weight:normal;font-size:39.98400116px;font-family:Helvetica;-inkscape-font-specification:Helvetica;writing-mode:lr-tb;fill:#ff0000;fill-opacity:1;fill-rule:nonzero;stroke:none"
           transform="matrix(1,0,0,-1,354.55,491.59)"><tspan
             id="tspan194"
             y="0"
             x="0 22.231104 44.462208 64.454208 75.569763 88.88443 111.11554 131.10753 142.22308 153.45859 173.45059 195.6817 204.55815 226.78925 249.02036">abstract values</tspan></text>
</g></g></g></svg>