<?xml version="1.0" encoding="UTF-8" standalone="no"?>
<svg
   xmlns:dc="http://purl.org/dc/elements/1.1/"
   xmlns:cc="http://creativecommons.org/ns#"
   xmlns:rdf="http://www.w3.org/1999/02/22-rdf-syntax-ns#"
   xmlns:svg="http://www.w3.org/2000/svg"
   xmlns="http://www.w3.org/2000/svg"
   viewBox="0 0 1200 675"
   height="675"
   width="1200"
   xml:space="preserve"
   version="1.1"
   id="svg2"><metadata
     id="metadata8"><rdf:RDF><cc:Work
         rdf:about=""><dc:format>image/svg+xml</dc:format><dc:type
           rdf:resource="http://purl.org/dc/dcmitype/StillImage" /></cc:Work></rdf:RDF></metadata><defs
     id="defs6"><clipPath
       id="clipPath16"
       clipPathUnits="userSpaceOnUse"><path
         style="clip-rule:evenodd"
         id="path18"
         d="m 0,1.2207e-4 960,0 0,539.99999793 -960,0 L 0,1.2207e-4 Z" /></clipPath><clipPath
       id="clipPath26"
       clipPathUnits="userSpaceOnUse"><path
         style="clip-rule:evenodd"
         id="path28"
         d="m 0,1.8311e-4 960,0 0,539.99999689 -960,0 L 0,1.8311e-4 Z" /></clipPath><clipPath
       id="clipPath36"
       clipPathUnits="userSpaceOnUse"><path
         style="clip-rule:evenodd"
         id="path38"
         d="M 1.4305e-5,0 960.00001,0 l 0,540 -959.999995695,0 0,-540 z" /></clipPath><clipPath
       id="clipPath48"
       clipPathUnits="userSpaceOnUse"><path
         style="clip-rule:evenodd"
         id="path50"
         d="M 1.4305e-5,0 960.00001,0 l 0,540 -959.999995695,0 0,-540 z" /></clipPath><clipPath
       id="clipPath60"
       clipPathUnits="userSpaceOnUse"><path
         style="clip-rule:evenodd"
         id="path62"
         d="M -4.77e-7,0 960,0 960,540 -4.77e-7,540 l 0,-540 z" /></clipPath><clipPath
       id="clipPath70"
       clipPathUnits="userSpaceOnUse"><path
         style="clip-rule:evenodd"
         id="path72"
         d="M 1.4305e-5,0 960.00001,0 l 0,540 -959.999995695,0 0,-540 z" /></clipPath><clipPath
       id="clipPath82"
       clipPathUnits="userSpaceOnUse"><path
         style="clip-rule:evenodd"
         id="path84"
         d="M 1.4305e-5,0 960.00001,0 l 0,540 -959.999995695,0 0,-540 z" /></clipPath><clipPath
       id="clipPath94"
       clipPathUnits="userSpaceOnUse"><path
         style="clip-rule:evenodd"
         id="path96"
         d="M 1.4305e-5,0 960.00001,0 l 0,540 -959.999995695,0 0,-540 z" /></clipPath><clipPath
       id="clipPath106"
       clipPathUnits="userSpaceOnUse"><path
         style="clip-rule:evenodd"
         id="path108"
         d="M 1.4305e-5,0 960.00001,0 l 0,540 -959.999995695,0 0,-540 z" /></clipPath><clipPath
       id="clipPath118"
       clipPathUnits="userSpaceOnUse"><path
         style="clip-rule:evenodd"
         id="path120"
         d="M 1.4305e-5,0 960.00001,0 l 0,540 -959.999995695,0 0,-540 z" /></clipPath><clipPath
       id="clipPath130"
       clipPathUnits="userSpaceOnUse"><path
         style="clip-rule:evenodd"
         id="path132"
         d="M 1.4305e-5,0 960.00001,0 l 0,540 -959.999995695,0 0,-540 z" /></clipPath><clipPath
       id="clipPath142"
       clipPathUnits="userSpaceOnUse"><path
         style="clip-rule:evenodd"
         id="path144"
         d="M 1.4305e-5,0 960.00001,0 l 0,540 -959.999995695,0 0,-540 z" /></clipPath><clipPath
       id="clipPath154"
       clipPathUnits="userSpaceOnUse"><path
         style="clip-rule:evenodd"
         id="path156"
         d="M -1.5259e-5,540 960,540 960,1.8311e-4 l -960.000015259,0" /></clipPath><clipPath
       id="clipPath164"
       clipPathUnits="userSpaceOnUse"><path
         style="clip-rule:evenodd"
         id="path166"
         d="M -1.8311e-4,540 960,540 960,6.1035e-5 l -960.00018311,0" /></clipPath></defs><g
     transform="matrix(1.25,0,0,-1.25,0,675)"
     id="g10"><g
       id="g12"><g
         clip-path="url(#clipPath16)"
         id="g14"><path
           id="path20"
           style="fill:#ffffff;fill-opacity:1;fill-rule:evenodd;stroke:none"
           d="m 0,6.1035e-5 960,0 0,539.999998965 -960,0 L 0,6.1035e-5 Z" /></g></g><g
       id="g22"><g
         clip-path="url(#clipPath26)"
         id="g24"><path
           id="path30"
           style="fill:#e7e6e6;fill-opacity:1;fill-rule:evenodd;stroke:none"
           d="M 6.72,0 960,0 960,319.56 6.72,319.56 6.72,0 Z" /></g></g><g
       id="g32"><g
         clip-path="url(#clipPath36)"
         id="g34"><text
           id="text40"
           style="font-variant:normal;font-weight:normal;font-size:39.95999908px;font-family:Helvetica;-inkscape-font-specification:Helvetica;writing-mode:lr-tb;fill:#000000;fill-opacity:1;fill-rule:nonzero;stroke:none"
           transform="matrix(1,0,0,-1,7.2,497.23)"><tspan
             id="tspan42"
             y="0"
             x="0 19.98 28.85112 37.72224 59.939999 82.157761">client</tspan></text>
</g></g><g
       id="g44"><g
         clip-path="url(#clipPath48)"
         id="g46"><text
           id="text52"
           style="font-variant:normal;font-weight:normal;font-size:39.95999908px;font-family:Helvetica;-inkscape-font-specification:Helvetica;writing-mode:lr-tb;fill:#000000;fill-opacity:1;fill-rule:nonzero;stroke:none"
           transform="matrix(1,0,0,-1,21.504,142.97)"><tspan
             id="tspan54"
             y="0"
             x="0 8.8711205 42.157799 64.375557 73.246681 95.464439 128.75111 150.96889 173.18665 184.29552 206.51328">implementer</tspan></text>
</g></g><g
       id="g56"><g
         clip-path="url(#clipPath60)"
         id="g58"><path
           id="path64"
           style="fill:none;stroke:#ff0000;stroke-width:3;stroke-linecap:butt;stroke-linejoin:miter;stroke-miterlimit:10;stroke-dasharray:none;stroke-opacity:1"
           d="m 6.78,319.48 953.23,2.06" /></g></g><g
       id="g66"><g
         clip-path="url(#clipPath70)"
         id="g68"><text
           id="text74"
           style="font-style:italic;font-variant:normal;font-weight:normal;font-size:32.04000092px;font-family:Helvetica;-inkscape-font-specification:'Helvetica Italic';writing-mode:lr-tb;fill:#ff0000;fill-opacity:1;fill-rule:nonzero;stroke:none"
           transform="matrix(1,0,0,-1,384.55,332.04)"><tspan
             id="tspan76"
             y="0"
             x="0 16.02 33.83424 51.648479 67.66848 74.781357 83.688477 90.801361 106.82136 124.6356 133.44659 140.55948 158.37372 176.0598">specification </tspan></text>
</g></g><g
       id="g78"><g
         clip-path="url(#clipPath82)"
         id="g80"><text
           id="text86"
           style="font-variant:normal;font-weight:normal;font-size:36px;font-family:Helvetica;-inkscape-font-specification:Helvetica;writing-mode:lr-tb;fill:#ff0000;fill-opacity:1;fill-rule:nonzero;stroke:none"
           transform="matrix(1,0,0,-1,203.9,457.1)"><tspan
             id="tspan88"
             y="0"
             x="0 20.016001 40.032001 52.02 72.036003 102.024 122.112 132.12 152.136 164.12399">parameters</tspan></text>
</g></g><g
       id="g90"><g
         clip-path="url(#clipPath94)"
         id="g92"><text
           id="text98"
           style="font-variant:normal;font-weight:normal;font-size:36px;font-family:Helvetica;-inkscape-font-specification:Helvetica;writing-mode:lr-tb;fill:#ff0000;fill-opacity:1;fill-rule:nonzero;stroke:none"
           transform="matrix(1,0,0,-1,585.67,497.09)"><tspan
             id="tspan100"
             y="0"
             x="0 11.988 32.004002 42.012001 62.028 74.015999 94.031998 104.04 122.04 142.056 150.048 170.064 190.15199">return value,</tspan></text>
</g></g><g
       id="g102"><g
         clip-path="url(#clipPath106)"
         id="g104"><text
           id="text110"
           style="font-variant:normal;font-weight:normal;font-size:36px;font-family:Helvetica;-inkscape-font-specification:Helvetica;writing-mode:lr-tb;fill:#ff0000;fill-opacity:1;fill-rule:nonzero;stroke:none"
           transform="matrix(1,0,0,-1,599.71,453.89)"><tspan
             id="tspan112"
             y="0"
             x="0 20.016001 38.015999 56.015999 76.031998 96.047997 106.056 114.048 134.064 154.15199">exceptions</tspan></text>
</g></g><g
       id="g114"><g
         clip-path="url(#clipPath118)"
         id="g116"><text
           id="text122"
           style="font-variant:normal;font-weight:normal;font-size:39.95999908px;font-family:Helvetica;-inkscape-font-specification:Helvetica;writing-mode:lr-tb;fill:#767171;fill-opacity:1;fill-rule:nonzero;stroke:none"
           transform="matrix(1,0,0,-1,354.31,159.43)"><tspan
             id="tspan124"
             y="0"
             x="0 8.8711205 31.088881 51.068878 73.286636 82.157761 93.26664 113.36652 135.58427 148.89096 157.76208 179.97984 202.1976 211.06873 233.28648 253.26648">local variables,</tspan></text>
</g></g><g
       id="g126"><g
         clip-path="url(#clipPath130)"
         id="g128"><text
           id="text134"
           style="font-variant:normal;font-weight:normal;font-size:39.95999908px;font-family:Helvetica;-inkscape-font-specification:Helvetica;writing-mode:lr-tb;fill:#767171;fill-opacity:1;fill-rule:nonzero;stroke:none"
           transform="matrix(1,0,0,-1,368.71,111.41)"><tspan
             id="tspan136"
             y="0"
             x="0 22.21776 35.524441 44.395561 64.455482 86.673241 97.78212 119.99988 131.30856 142.41743 151.28856 173.50632 182.37744 204.5952 224.69508">private fields,</tspan></text>
</g></g><g
       id="g138"><g
         clip-path="url(#clipPath142)"
         id="g140"><text
           id="text146"
           style="font-variant:normal;font-weight:normal;font-size:39.95999908px;font-family:Helvetica;-inkscape-font-specification:Helvetica;writing-mode:lr-tb;fill:#767171;fill-opacity:1;fill-rule:nonzero;stroke:none"
           transform="matrix(1,0,0,-1,287.59,63.408)"><tspan
             id="tspan148"
             y="0"
             x="0 8.8711205 42.157799 64.375557 73.246681 95.464439 128.75111 150.849 173.06676 184.17564 206.3934 217.50227 226.3734 248.59116 270.80893 282.43729 304.65503 326.8728 337.98169 360.19943 369.07056 377.94168">implementation details</tspan></text>
</g></g><g
       id="g150"><g
         clip-path="url(#clipPath154)"
         id="g152"><path
           id="path158"
           style="fill:none;stroke:#4472c4;stroke-width:2.25;stroke-linecap:butt;stroke-linejoin:miter;stroke-miterlimit:10;stroke-dasharray:none;stroke-opacity:1"
           d="m 230.4,440.22 111.59,-192.01 19.62,11.4 -11.47,-43.29 -43.29,11.47 19.62,11.4 -111.59,192.01 15.52,9.02 z" /></g></g><g
       id="g160"><g
         clip-path="url(#clipPath164)"
         id="g162"><path
           id="path168"
           style="fill:none;stroke:#4472c4;stroke-width:2.25;stroke-linecap:butt;stroke-linejoin:miter;stroke-miterlimit:10;stroke-dasharray:none;stroke-opacity:1"
           d="m 617.91,222.25 113.65,191.71 -19.52,11.57 43.38,11.09 11.09,-43.38 L 747,404.81 633.35,213.1 l -15.44,9.15 z" /></g></g><path
       id="path170"
       style="fill:none;stroke:#4472c4;stroke-width:2.27999997;stroke-linecap:butt;stroke-linejoin:miter;stroke-miterlimit:10;stroke-dasharray:none;stroke-opacity:1"
       d="m 361.5,229.28 221.7,0 0,22.66 31.62,-31.62 -31.62,-31.62 0,22.66 -221.7,0 0,17.92 z" /></g></svg>